# xmcd CD database file
#
# Track frame offsets:
#	150
#	26309
#	40127
#	56142
#	60981
#	73661
#	93188
#	115981
#	135597
#	151382
#	164397
#	179268
#	193458
#	210354
#	223268
#	233001
#	246485
#	260806
#	278323
#	291738
#	302362
#	327317
#	346316
#
# Disc length: 4763 seconds
#
# Revision: 0
# Processed by: cddbd v1.5.2PL0 Copyright (c) Steve Scherf et al.
# Submitted via: CDex 1.51
#
DISCID=5a129917
DTITLE=Blind Lemming Chiffon - Wake Up Crazy
DYEAR=2014
DGENRE=Blues
TTITLE0=I've Got What It Takes
TTITLE1=Let The Mermaids Flirt With Me
TTITLE2=Nobody Knows You When You're Down And Out
TTITLE3=Three Blind Blakes
TTITLE4=Wake Up Crazy
TTITLE5=I Set My Own Mind Free
TTITLE6=Stomp-Down Rider
TTITLE7=32-20
TTITLE8=Good Old Wagon
TTITLE9=Evil-Hearted Man
TTITLE10=Razor Ball
TTITLE11=Black Gal Swing
TTITLE12=Gimme Some
TTITLE13=Gimme A Pigfoot
TTITLE14=I Heard The Voice Of A Pork Chop
TTITLE15=I Wish That I Could Shimmy Like My Sister Kate
TTITLE16=Come On In My Kitchen
TTITLE17=Let Your Money Talk
TTITLE18=Like Nobody's Business
TTITLE19=When The Iceworms Nest Again
TTITLE20=The Space Between The Lines
TTITLE21=Come On In My Kitchen Medley
TTITLE22=You Can't Get Enough Of That Stuff
EXTD=YEAR: 2014
EXTT0=
EXTT1=
EXTT2=
EXTT3=
EXTT4=
EXTT5=
EXTT6=
EXTT7=
EXTT8=
EXTT9=
EXTT10=
EXTT11=
EXTT12=
EXTT13=
EXTT14=
EXTT15=
EXTT16=
EXTT17=
EXTT18=
EXTT19=
EXTT20=
EXTT21=
EXTT22=
PLAYORDER=
